<svg width="32" height="37" viewBox="0 0 32 37" fill="none" xmlns="http://www.w3.org/2000/svg">
<path d="M7.83333 13.7857H15C15.5523 13.7857 16 14.2334 16 14.7857V29.1071M7.83333 20.8571H12.5M7.83333 27.9286H12.5M19.5 13.7857H24.1667M19.5 20.8571H24.1667M19.5 27.9286H24.1667M27.6667 35H4.33333C3.04467 35 2 33.9447 2 32.6429V4.35714C2 3.05533 3.04467 2 4.33333 2H20.2495C20.5165 2 20.7723 2.10676 20.9602 2.29649L29.7107 11.1363C29.896 11.3235 30 11.5764 30 11.8398V32.6429C30 33.9447 28.9553 35 27.6667 35Z" stroke="white" stroke-width="3"/>
</svg>
