<svg width="48" height="48" viewBox="0 0 48 48" fill="none" xmlns="http://www.w3.org/2000/svg">
<path d="M38.1429 46H45C45.5523 46 46 45.5523 46 45V41.2857C46 36.9463 42.4822 33.4286 38.1429 33.4286M27.1429 11.4224C27.1429 16.6267 22.922 20.8448 17.7143 20.8448C12.5066 20.8448 8.28571 16.6267 8.28571 11.4224C8.28571 6.21811 12.5066 2 17.7143 2C22.922 2 27.1429 6.21811 27.1429 11.4224ZM24 30.2673H11.4286C6.22132 30.2673 2 34.487 2 39.6943C2 41.3274 2 43.1052 2 44.9713C2 45.5236 2.44771 45.9713 3 45.9713H32.4286C32.9809 45.9713 33.4286 45.5236 33.4286 44.9713C33.4286 43.1052 33.4286 41.3274 33.4286 39.6943C33.4286 34.487 29.2073 30.2673 24 30.2673ZM36.5714 27.1429C33.0999 27.1429 30.2857 24.3286 30.2857 20.8571C30.2857 17.3856 33.0999 14.5714 36.5714 14.5714C40.0429 14.5714 42.8571 17.3856 42.8571 20.8571C42.8571 24.3286 40.0429 27.1429 36.5714 27.1429Z" stroke="white" stroke-width="3"/>
</svg>
