<svg width="48" height="35" viewBox="0 0 48 35" fill="none" xmlns="http://www.w3.org/2000/svg">
<path d="M35 26.8H38.7143C39.2666 26.8 39.7143 26.3523 39.7143 25.8V22.15M35 8.2H38.7143C39.2666 8.2 39.7143 8.64772 39.7143 9.2V12.85M13 8.2H9.28572C8.73343 8.2 8.28571 8.64772 8.28571 9.2V12.85M8.28571 22.15V25.8C8.28571 26.3523 8.73343 26.8 9.28571 26.8H13M24 23.7C20.5285 23.7 17.7143 20.9242 17.7143 17.5C17.7143 14.0758 20.5285 11.3 24 11.3C27.4715 11.3 30.2857 14.0758 30.2857 17.5C30.2857 20.9242 27.4715 23.7 24 23.7ZM5.14286 2H42.8571C44.5929 2 46 3.38792 46 5.1V29.9C46 31.6121 44.5929 33 42.8571 33H5.14286C3.40711 33 2 31.6121 2 29.9V5.1C2 3.38792 3.40711 2 5.14286 2Z" stroke="white" stroke-width="3"/>
</svg>
