<svg width="33" height="37" viewBox="0 0 33 37" fill="none" xmlns="http://www.w3.org/2000/svg">
<path d="M8.04167 11.4286H12.875M17.7083 11.4286H24.9583M8.04167 18.5H12.875M17.7083 18.5H24.9583M17.7083 25.5714H24.9583M7.27167 32.8566L11.2283 34.7862C11.505 34.9211 11.8284 34.9211 12.105 34.7862L16.0617 32.8566C16.3383 32.7217 16.6617 32.7217 16.9383 32.8566L20.895 34.7862C21.1716 34.9211 21.495 34.9211 21.7717 34.7862L25.7283 32.8566C26.005 32.7217 26.3284 32.7217 26.605 32.8566L29.5617 34.2985C30.2259 34.6225 31 34.1388 31 33.3997V3C31 2.44772 30.5523 2 30 2H3C2.44772 2 2 2.44771 2 3V33.3997C2 34.1388 2.77406 34.6225 3.43834 34.2985L6.395 32.8566C6.67165 32.7217 6.99502 32.7217 7.27167 32.8566Z" stroke="white" stroke-width="3"/>
</svg>
