<svg width="49" height="49" viewBox="0 0 49 49" fill="none" xmlns="http://www.w3.org/2000/svg">
<path d="M18.0714 2H5.21429C3.43908 2 2 3.43909 2 5.21429V18.0714C2 19.8466 3.43909 21.2857 5.21429 21.2857H18.0714C19.8466 21.2857 21.2857 19.8466 21.2857 18.0714V5.21429C21.2857 3.43908 19.8466 2 18.0714 2Z" stroke="white" stroke-width="3"/>
<path d="M43.7857 2H30.9286C29.1534 2 27.7143 3.43909 27.7143 5.21429V18.0714C27.7143 19.8466 29.1534 21.2857 30.9286 21.2857H43.7857C45.5609 21.2857 47 19.8466 47 18.0714V5.21429C47 3.43908 45.5609 2 43.7857 2Z" stroke="white" stroke-width="3"/>
<path d="M43.7857 27.7143H30.9286C29.1534 27.7143 27.7143 29.1534 27.7143 30.9286V43.7857C27.7143 45.5609 29.1534 47 30.9286 47H43.7857C45.5609 47 47 45.5609 47 43.7857V30.9286C47 29.1534 45.5609 27.7143 43.7857 27.7143Z" stroke="white" stroke-width="3"/>
<path d="M18.0714 27.7143H5.21429C3.43908 27.7143 2 29.1534 2 30.9286V43.7857C2 45.5609 3.43909 47 5.21429 47H18.0714C19.8466 47 21.2857 45.5609 21.2857 43.7857V30.9286C21.2857 29.1534 19.8466 27.7143 18.0714 27.7143Z" stroke="white" stroke-width="3"/>
</svg>
