<svg width="51" height="51" viewBox="0 0 51 51" fill="none" xmlns="http://www.w3.org/2000/svg">
<path d="M17.1071 18.7857H20.4643M30.5357 32.2143H33.8929M33.8929 17.1071L17.1071 33.8929M23.1549 2.97138L19.3646 6.76166C18.7426 7.38363 17.8991 7.73304 17.0195 7.73304H11.0495C9.21789 7.73304 7.73304 9.21789 7.73304 11.0495V17.0195C7.73304 17.8991 7.38363 18.7426 6.76166 19.3646L2.97138 23.1549C1.67621 24.4501 1.67621 26.5499 2.97138 27.8451L6.76166 31.6354C7.38363 32.2574 7.73304 33.1009 7.73304 33.9805V39.9505C7.73304 41.7821 9.21789 43.267 11.0495 43.267H17.0195C17.8991 43.267 18.7426 43.6164 19.3646 44.2383L23.1549 48.0286C24.4501 49.3238 26.5499 49.3238 27.8451 48.0286L31.6354 44.2383C32.2574 43.6164 33.1009 43.267 33.9805 43.267H39.9505C41.7821 43.267 43.267 41.7821 43.267 39.9505V33.9805C43.267 33.1009 43.6164 32.2574 44.2383 31.6354L48.0286 27.8451C49.3238 26.5499 49.3238 24.4501 48.0286 23.1549L44.2383 19.3646C43.6164 18.7426 43.267 17.8991 43.267 17.0195V11.0495C43.267 9.21789 41.7821 7.73304 39.9505 7.73304H33.9805C33.1009 7.73304 32.2574 7.38363 31.6354 6.76166L27.8451 2.97138C26.5499 1.67621 24.4501 1.67621 23.1549 2.97138Z" stroke="white" stroke-width="3"/>
</svg>
